<svg width="1280" height="1280" viewBox="0 0 1280 1280" fill="none" xmlns="http://www.w3.org/2000/svg">
<rect width="1280" height="1280" rx="640" fill="url(#paint0_linear)"/>
<path fill-rule="evenodd" clip-rule="evenodd" d="M914.432 598.568L791.116 321C438.744 481.27 297.666 626.089 122.22 958.486H323.347C374.773 885.406 405.253 887.888 462.131 958.486H735C683.244 898.735 651.72 833.978 647.315 711.852C679.181 825.648 704.636 883.989 791.116 958.486H960.833C1111.28 808.308 1146.21 680.932 1192 439.301C1104.87 592.044 1055.09 659.243 960.833 670.468C1011.79 621.017 1022.58 586.178 1022.28 516.217C1018.81 521.447 1015.57 526.494 1012.46 531.338L1012.45 531.353L1012.44 531.371L1012.44 531.373C987.902 569.59 971.488 595.156 914.432 598.568ZM1112.16 794.203C1078.89 868.772 1055.28 901.466 1003.89 958.486H1112.16C1132.01 894.329 1130.53 858.359 1112.16 794.203ZM235.144 711.852L182.055 794.203C148.901 810.716 127.514 834.423 90.9654 874.939L90.9652 874.939L90.9342 874.973L90.8753 875.038C89.9273 876.089 88.969 877.152 88 878.225C116.826 820.673 136.833 787.409 235.144 711.852ZM791.116 670.468C766.222 647.642 743.817 607.266 730.869 573.61C706.77 648.526 728.814 688.836 791.116 670.468Z" fill="#F2F2F2"/>
<path d="M811.597 796.711L694.551 750.729L842.113 851.472V820.956L926.136 845.202L805.327 761.597L811.597 796.711Z" fill="#FF1744"/>
<defs>
<linearGradient id="paint0_linear" x1="208.5" y1="118.5" x2="973.5" y2="1201.5" gradientUnits="userSpaceOnUse">
<stop stop-color="#3D5AFE"/>
<stop offset="1" stop-color="#2038C0"/>
</linearGradient>
</defs>
</svg>
